<svg version="1.1" id="Layer_1" xmlns="http://www.w3.org/2000/svg" xmlns:xlink="http://www.w3.org/1999/xlink" x="0px" y="0px" fill="#999999"
	 viewBox="0 0 512 512" style="enable-background:new 0 0 512 512;" xml:space="preserve">
<g>
	<path class="st0" d="M436.2,436.3h-75.8V317.5c0-28.3-0.6-64.8-39.5-64.8c-39.5,0-45.6,30.8-45.6,62.7v120.9h-75.8V192h72.8v33.3h1
		c10.2-19.2,34.9-39.5,71.9-39.5c76.8,0,91,50.6,91,116.4L436.2,436.3L436.2,436.3z M113.8,158.6c-24.4,0-44-19.8-44-44.1
		c0-24.3,19.6-44,44-44c24.3,0,44,19.7,44,44C157.9,138.8,138.1,158.6,113.8,158.6z M151.9,436.3h-76V192h76V436.3z M474.1,0H37.8
		C16.9,0,0,16.5,0,36.9v438.2C0,495.5,16.9,512,37.8,512h436.3c20.9,0,37.9-16.5,37.9-36.9V36.9C512,16.5,494.9,0,474.1,0L474.1,0z"
		/>
</g>
</svg>
